Coordinates
version=1
nRows=9
nColumns=24
inDegrees=yes

Units are S.I. units (second, meters, Newtons, ...)
Angles are in degrees.

endheader
time	pelvis_tilt	pelvis_list	pelvis_rotation	pelvis_tx	pelvis_ty	pelvis_tz	hip_flexion_r	hip_adduction_r	hip_rotation_r	knee_angle_r	ankle_angle_r	subtalar_angle_r	mtp_angle_r	hip_flexion_l	hip_adduction_l	hip_rotation_l	knee_angle_l	ankle_angle_l	subtalar_angle_l	mtp_angle_l	lumbar_extension	lumbar_bending	lumbar_rotation
      5.47000000	     -8.61826593	      5.80562229	      2.95153951	     -0.88584648	     -0.00438245	     -0.32187597	     25.50666416	    -11.74831879	     -9.32765558	    -64.71307383	    -15.96310257	      3.41746244	     36.03939280	     12.16397230	     10.71536042	     16.87677667	    -12.82331957	      0.77669348	     -7.73255464	      0.88823217	      6.91316488	     -8.42190341	      2.43725882
      5.47500000	     -8.55207000	      5.55836868	      3.13948605	     -0.88125455	     -0.00389870	     -0.32224777	     26.06288683	    -11.53137902	     -9.56069652	    -64.34700262	    -15.38183788	      3.58328870	     36.32892699	     11.64409123	     10.46618352	     17.15580288	    -12.58278918	      0.97452875	     -7.75080174	      0.88725528	      6.75606699	     -8.19033473	      2.03137961
      5.48000000	     -8.46615348	      5.33807254	      3.35669990	     -0.87671114	     -0.00342777	     -0.32264785	     26.57515042	    -11.35364036	     -9.80073604	    -63.92037539	    -14.78034591	      3.76072184	     36.59675929	     11.10521810	     10.24214834	     17.43342738	    -12.33610930	      1.14192773	     -7.72385072	      0.92237879	      6.56356361	     -7.98748820	      1.56890311
      5.48500000	     -8.37062169	      5.13617698	      3.54827612	     -0.87217173	     -0.00298988	     -0.32300563	     27.06967620	    -11.17736509	    -10.00361119	    -63.43468772	    -14.20705231	      3.89655901	     36.80213915	     10.55097617	     10.02172765	     17.67210552	    -12.06875630	      1.29942721	     -7.69387928	      0.99238402	      6.36742821	     -7.79912938	      1.12993090
      5.49000000	     -8.27206674	      4.94262089	      3.72020954	     -0.86764047	     -0.00259098	     -0.32331825	     27.54991707	    -10.99254127	    -10.17588374	    -62.88854279	    -13.65236578	      3.99683498	     36.94139044	      9.99348303	      9.79716994	     17.87987249	    -11.79117619	      1.45350661	     -7.65488604	      1.10071607	      6.17315002	     -7.61506443	      0.71920022
      5.49500000	     -8.11908245	      4.77745185	      3.90793573	     -0.86313556	     -0.00216492	     -0.32362547	     27.94555807	    -10.83788699	    -10.34715743	    -62.28016609	    -13.08926810	      4.09160395	     36.99434158	      9.37400262	      9.59279250	     18.08192962	    -11.49839933	      1.55873969	     -7.59362388	      1.28519575	      5.91113795	     -7.46198743	      0.26447231
      5.50000000	     -7.96200045	      4.60962006	      4.03620416	     -0.85857287	     -0.00179112	     -0.32382527	     28.32879458	    -10.64267291	    -10.47286633	    -61.61617375	    -12.51454611	      4.13440178	     36.85120845	      8.73962783	      9.36398127	     18.22896263	    -11.17408676	      1.63149872	     -7.60105222	      1.61882332	      5.66782798	     -7.29383408	     -0.06159910
      5.50500000	     -7.87453356	      4.44645838	      4.18148334	     -0.85410337	     -0.00154425	     -0.32402238	     28.78235709	    -10.44745843	    -10.55618645	    -60.90173174	    -11.99822606	      4.18239914	     36.77350318	      8.21219470	      9.14973178	     18.37197950	    -10.90584526	      1.77375916	     -7.54525083	      1.83673913	      5.48720376	     -7.13922767	     -0.45937456
      5.51000000	     -7.74723375	      4.29381403	      4.30299771	     -0.84958482	     -0.00128603	     -0.32416417	     29.16723231	    -10.24420118	    -10.61766740	    -60.11948630	    -11.47981346	      4.21270881	     36.59269752	      7.62899598	      8.93328791	     18.50037296	    -10.61448205	      1.89740890	     -7.51869057	      2.05730850	      5.27575538	     -6.98927955	     -0.80520808
